<?xml version="1.0" encoding="utf-8"?>
<!-- Generator: Adobe Illustrator 27.5.0, SVG Export Plug-In . SVG Version: 6.00 Build 0)  -->
<svg version="1.1" id="Capa_1" xmlns="http://www.w3.org/2000/svg" xmlns:xlink="http://www.w3.org/1999/xlink" x="0px" y="0px"
	 viewBox="0 0 1898 2372" style="enable-background:new 0 0 1898 2372;" xml:space="preserve">
<path style="fill:#1A2E59;" d="M887.769,401.815c67.477,36.381,193.072,47.069,214.692,8.133
	c26.228-47.241-47.085-111.912-98.109-130.903c-51.015-18.986-94.671-22.137-160.402-3.021
	C766.935,298.422,820.295,365.43,887.769,401.815z"/>
<g>
	<path style="fill:#9B7984;" d="M1050.982,382.336c-1.98,20.514-1.179,38.13,19.193,67.457c16.984,24.45,62.917,35.41,75.108,64.089
		c27.348,64.337-22.742,133.33,2.901,194.308c16.785,39.917,1.729,71.636-16.717,108.861
		c-15.348,30.973-17.191,49.874-11.352,82.135c8.465,46.755,7.114,114.29-48.907,130.669c-26.803,7.839-71.737,15.601-98.89,7.956
		c-41.905-11.802-88.249-59.162-88.407-104.749c-0.131-35.459,20.113-67.346-5.085-99.204
		c-20.162-25.501-43.479-46.755-52.246-80.049c-8.827-33.5,4.717-52.009,18.466-80.787c14.146-29.611,13.689-49.119,0.839-77.442
		c-13.966-30.773-28.799-56.067-13.871-88.494c11.915-25.888,22.456-44.928,18.52-73.629c-4.475-32.697-4.088-82.813,13.212-111.277
		c17.142-28.205,28.663-41.684,66.831-44.947C1040.39,267.853,1052.845,363.069,1050.982,382.336z"/>
	<path style="fill:#B9B7B3;" d="M931.866,324.46c-0.635,0.152-1.258,0.327-1.874,0.518c-8.876,2.77-15.484,1.819-24.618,2.609
		c-12.071,1.041-36.292,3.933-37.506,19.741c0,0-1.844,24.003-1.85,24.066c-0.659,8.557-1.615,16.654-1.331,25.397
		c0.283,8.811,5.613,10.113,8.14,17.671c2.334,6.991,1.234,15.042,1.585,22.281c0.645,13.141,3.01,25.601,11.186,36.411
		c5.104,6.744,22.23,20.571,22.442,29.412c0.082,3.538-4.84,8.906-6.319,12.566c-2.25,5.559-2.566,10.99-3.5,16.84
		c-1.708,10.671-13.433,16.366-14.743,27.974c-2.65,23.521,19.212,31.092,35.924,39.911c8.879,4.685,19.349,6.869,29.377,7.06
		c13.193,0.245,26.261-2.767,39.585-2.155c24.251,1.112,50.226,0.226,73.079-9.053c15.966-6.485,35.976-22.113,11.681-32.07
		c-10.08-4.129-18.997-4.965-28.726-10.483c-10.733-6.081-12.065-14.01-14.497-26.084c-2.119-10.508-6.485-22.14-2.854-32.931
		c5.883-17.505,15.282-34.543,16.208-53.347c0.499-10.17-4.183-16.262-6.223-25.457c-1.991-8.974-0.722-15.841-7.351-23.632
		c-10.741-12.627-23.384-22.532-33.009-35.968c-8.391-11.711-17.829-23.747-32.231-28.047
		C954.325,324.672,942.281,321.932,931.866,324.46z"/>
	<path style="fill:#213870;" d="M908.757,1654.088c5.344-78.73-12.019-103.128-8.065-157.701
		c-1.933-33.002-15.68-41.469-32.786-43.604c-21.995-2.751-38.983,32.827-38.983,32.827c6.447,48.281-8.797,88.549-7.776,169.586
		c1.176,93.228,27.315,332.666,27.315,332.666c-1.585,13.634-27.187,27.661-55.515,44.198c0,0-15.121,14.234-13.74,17.442
		c3.608,8.394,7.479,7.833,15.099,6.996c19.46-2.13,35.908-10.352,54.248-14.519c9.358-2.122,27.938-4.262,33.944-12.73
		c7.327-10.325,0.793-21.832-0.201-34.464C882.297,1994.786,903.454,1732.116,908.757,1654.088z"/>
	<path style="fill:#213870;" d="M1075.889,2032.061c-28.331-16.537-53.929-30.564-55.512-44.198c0,0,27.876-239.438,29.052-332.666
		c1.018-81.037-14.228-121.305-7.782-169.586c0,0-16.984-35.578-38.979-32.827c-17.107,2.135-30.856,10.602-32.787,43.604
		c3.955,54.572-13.411,78.971-8.062,157.701c5.349,78.739,24.72,340.698,24.72,340.698c-0.992,12.632-7.528,24.139-0.202,34.464
		c6.008,8.468,24.586,10.608,33.941,12.73c18.343,4.167,34.794,12.39,54.248,14.519c7.626,0.836,11.493,1.397,15.105-6.996
		C1091.013,2046.295,1075.889,2032.061,1075.889,2032.061z"/>
	<path style="fill:#944F2A;" d="M1025.252,1987.863c14.745,13.019,50.642,44.198,50.642,44.198
		c11.946,7.076,21.445,14.004,22.186,17.412c2.19,9.977-14.073,10.649-21.696,9.811c-19.46-2.127-37.264-10.696-55.599-14.866
		c-9.364-2.121-29.981-4.913-35.981-13.378c-6.436-9.061-7.13-27.299-1.528-36.079l-5.703-83.161c9.702-6.297,40.856-6.706,54.216,0
		L1025.252,1987.863z"/>
	<path style="fill:#944F2A;" d="M844.535,1987.863c-14.748,13.019-50.639,44.198-50.639,44.198
		c-11.948,7.076-21.443,14.004-22.189,17.412c-2.184,9.977,14.073,10.649,21.699,9.811c19.457-2.127,37.259-10.696,55.599-14.866
		c9.361-2.121,29.976-4.913,35.978-13.378c6.434-9.061,7.131-27.299,1.528-36.079l5.706-83.161c-9.701-6.297-40.859-6.706-54.215,0
		L844.535,1987.863z"/>
	<g>
		<path style="fill:#213870;" d="M829.449,1490.312c6.673,39.228,20.149,46.156,50.446,47.94c30.3,1.784,16.805-4.752,20.476-35.447
			c-0.264-15.064,24.85-257.01,26.833-272.069c14.803-112.261,21.192-186.652,21.192-186.652l-1.174-150.97l-102.654-0.006
			c-11.779,41.807-40.696,148.914-40.696,242.641C803.872,1280.645,827.068,1467.986,829.449,1490.312z"/>
		<path style="fill:#213870;" d="M1041.125,1490.312c-6.676,39.228-20.149,46.156-50.444,47.94
			c-30.302,1.784-16.81-4.752-20.481-35.447c0.267-15.064-24.844-257.01-26.833-272.069
			c-14.8-112.261-21.189-186.652-21.189-186.652l-96.298-77.739l18.687-73.237l181.439,0.006
			c11.777,41.801,40.698,148.908,40.698,242.635C1066.705,1280.645,1043.508,1467.986,1041.125,1490.312z"/>
	</g>
	<g>
		<path style="fill:#E4B142;" d="M860.125,566.626c-51.86,0.03-73.624,84.785-82.848,116.438
			c-8.797,30.175-26.019,81.637-36.425,111.114c-6.433,18.226-1.381,25.542,18.959,38.441c31.237,19.806,51.892,4.723,57.072-6.828
			c18.123-40.388,88.018-160.963,95.843-198.448C921.228,586.62,860.125,566.626,860.125,566.626z"/>
		<path style="fill:#F8A894;" d="M787.051,811.444c-30.706-17.244-39.323,19.511-48.749,40.178
			c-12.801,28.053-57.073,117.173-63.19,123.906c-6.114,6.73-11.872,14.937-21.933,20.852
			c-11.622,6.826-20.133,14.125-27.246,25.514c-2.634,4.216-6.534,12.853-4.148,15.141c4.202,4.026,7.146,0.164,11.649-6.831
			c1.226-1.918,6.559-6.291,8.83-10.317c-3.505,13.473-22.257,30.923-25.302,47.507c-1.847,10.058-0.254,16.848,10.891,17.975
			c13.64,1.381,14.424-10.047,23.946-16.29c3.832-2.514,12.188-2.606,20.054-15.361c4.398-7.13,8.789-16.219,11.256-24.114
			c3.154-10.08,6.913-23.788,10.486-31.095c3.576-7.308,78.047-97.093,90.025-123.108
			C797.806,844.576,799.4,818.375,787.051,811.444z"/>
	</g>
	<g>
		<path style="fill:#F8A894;" d="M1027.306,558.388c-4.688,0.003-52.233-34.873-30.771-122.03l-10.301-12.872
			c-24.561,6.142-83.036,5.984-72.213,30.526c42.602,96.608-30.534,109.798-34.273,109.798c-16.862,0-13.806,80.825,52.973,80.825
			c66.782,0,86.452-60.837,90.524-69.686C1027.894,564.854,1027.306,558.388,1027.306,558.388z"/>
		<path style="fill:#DAD6D2;" d="M999.433,524.114c-8.182-19.639-12.608-48.332-2.898-87.756l-8.53-10.657
			c-26.299,4.529-52.851,9.707-75.087,20.762c-0.438,2.222-0.149,4.714,1.103,7.55c8.416,19.089,12,35.194,13.155,48.638
			c10.404,0.58,22.333-0.428,33.108,1.291C976.081,506.454,990.023,515.998,999.433,524.114z"/>
	</g>
	<g>
		<path style="fill:#F7C047;" d="M1027.306,558.388c30.798,3.317,48.744,8.238,52.756,20.225
			c4.537,13.53-17.788,68.329-31.79,193.771c-5.153,46.11,92.842,487.954,18.308,544.674c0,0-207.91,38.857-262.708-2.018
			c-53.589-39.977,18.406-481.986,16.595-507.196c-13.01-181.159,34.309-236.521,39.658-241.219c0,0,11.483-1.321,19.623-2.816
			c5.02-0.92,31.201-10.085,41.834-29.752l77.851-9.944C999.953,534.058,1027.306,558.388,1027.306,558.388z"/>
		<path style="fill:#DAD6D2;" d="M1048.272,772.385c10.156-90.973,24.676-144.769,30.167-172.637v-0.006
			c-4.608,0.545-9.159,1.4-13.591,2.819c-0.005,0.003-0.005,0.008-0.005,0.008c-21.762,26.43-27.454,55.656-31.025,88.824
			c-3.511,32.579,0.166,137.176,2.748,150.848c39.851,210.805,30.014,474.818,30.014,474.818
			C1141.114,1260.338,1043.119,818.495,1048.272,772.385z"/>
	</g>
	<g>
		<path style="fill:#F7C047;" d="M1056.644,566.626c63.811-8.238,61.319,67.924,70.168,99.677
			c8.443,30.276,16.595,95.78,26.653,125.378c6.221,18.299,7.411,29.268-13.078,41.932c-31.463,19.438-54.97,5.011-60.011-6.597
			c-17.654-40.6-49.18-162.099-56.566-199.673C1015.78,586.525,1056.644,566.626,1056.644,566.626z"/>
		<path style="fill:#F8A894;" d="M1113.409,812.143c30.91-16.878,39.092,19.975,48.267,40.75
			c12.477,28.203,55.697,117.841,61.73,124.647c6.035,6.8,11.693,15.075,21.688,21.105c11.537,6.964,19.967,14.361,26.939,25.839
			c2.584,4.243,6.378,12.926,3.968,15.187c-4.249,3.974-7.144,0.076-11.562-6.97c-1.209-1.93-6.487-6.368-8.713-10.417
			c3.342,13.514,21.895,31.185,24.744,47.799c1.726,10.08,0.051,16.854-11.104,17.848c-13.653,1.223-14.304-10.219-23.752-16.568
			c-3.805-2.56-12.15-2.756-19.871-15.601c-4.314-7.182-8.598-16.32-10.973-24.25c-3.029-10.11-6.629-23.864-10.118-31.212
			c-3.489-7.348-76.892-98.003-88.565-124.163C1102.259,845.148,1100.984,818.928,1113.409,812.143z"/>
	</g>
	<g>
		<path style="fill:#F8A894;" d="M1002.957,354.435c-13.711-32.323-40.492-36.346-40.492-36.346
			c-5.444-1.261-10.897-2.231-16.287-2.868v-0.6c-1.075,0.065-2.154,0.18-3.233,0.281c-1.078-0.1-2.163-0.215-3.235-0.281v0.6
			c-5.388,0.637-10.843,1.606-16.287,2.868c0,0-26.778,4.023-40.491,36.346c-8.743,20.615-4.232,30.172-3.018,49.575
			c1.152,18.48,0.548,22.181,3.884,37.204c4.254,19.149,20.359,35.047,36.875,46.998c7.651,5.022,15.127,6.935,22.273,6.605
			c7.147,0.33,14.623-1.582,22.271-6.605c16.516-11.951,32.621-27.849,36.877-46.998c3.337-15.023,2.729-18.724,3.884-37.204
			C1007.19,384.607,1011.703,375.05,1002.957,354.435z"/>
	</g>
	<path style="fill:#9B7984;" d="M1008.222,275.086c-12.297-11.499-76.565-21.93-112.274,4.361
		c-28.126,20.713-39.83,51.097-38.01,85.804c0.365,6.85,1.147,13.672,2.228,20.44c0.621,3.849,5.268,21.348,5.268,21.348
		c31.877-8.312,24.476-48.207,59.76-49.444c29.965-1.051,37.804-25.299,37.804-25.299c4.654,33.443,10.181,42.747,24.422,51.209
		c10.603,6.299,7.318,34.216,13.343,27.579c7.146-7.863,4.017,8.527,4.017,8.527s-5.856,11.474-2.22,8.563
		c-4.679,8.576,3.598,40.08,17.406,54.757c0,0,23.938-74.007,27.772-105.5C1056.127,308.578,1020.393,286.466,1008.222,275.086z"/>
	<g>
		<path style="fill:#F8A894;" d="M1000.146,413.011c3.241-13.158,23.499-25.068,26.097-4.377
			c2.141,17.044-17.507,52.239-26.291,20.062L1000.146,413.011z"/>
	</g>
	<path style="fill:#DAD6D2;" d="M887.499,561.299c0,0,18.212,36.09,88.895,19.525c39.497-9.257,48.003-25.103,48.003-25.103
		l-7.237-7.024L887.499,561.299z"/>
	<path style="fill:#F7C047;" d="M926.73,517.131c0.281-3.222,0.812-12.128,0.577-14.481c-2.108,1.076-27.331-0.722-23.428,21.464
		c1.923,10.9,2.087,15.203-6.479,18.216c-5.52,1.942-8.064,12.771-9.9,18.97c0,0,67.191,42.049,129.661-12.602
		c20.454-17.894-6.901-29.674-6.901-29.674c-2.601-7.294,2.925-14.909,0-21.965c-5.75-13.861-14.037-10.736-19.087-11.137
		c0.21,11.708-1.201,14.982-13.541,21.461C968.616,512.117,944.062,519.419,926.73,517.131z"/>
	<g>
		<g>
			<g>
				<g>
					<path style="fill:#9B7984;" d="M953.35,396.037c3.769,0.128,6.649-2.793,10.595-2.628c3.954,0.166,7.981,3.301,11.81,1.715
						c1.34-0.555,2.064-1.879,1.326-3.259c-2.097-3.918-8.964-5.339-13.136-5.246c-4.474,0.099-10.82,2.817-12.188,7.326
						C951.436,395.005,952.304,396.001,953.35,396.037L953.35,396.037z"/>
				</g>
			</g>
			<g>
				<g>
					<path style="fill:#9B7984;" d="M913.24,393.945c-1.299-4.295-7.007-6.815-11.231-7.232c-4.368-0.432-11.875,1.013-14.087,5.152
						c-0.738,1.38-0.015,2.703,1.326,3.259c3.436,1.424,7.313-1.005,10.804-1.587c4.429-0.739,7.453,2.64,11.596,2.5
						C912.693,396.001,913.56,395.005,913.24,393.945L913.24,393.945z"/>
				</g>
			</g>
		</g>
		<g>
			<g>
				<g>
					<g>
						<path style="fill:#2D0000;" d="M905.287,408.62c-1.863-5.043-9.638-3.226-8.156,2.162
							C898.591,416.089,907.1,413.526,905.287,408.62L905.287,408.62z"/>
					</g>
				</g>
				<g>
					<g>
						<path style="fill:#2D0000;" d="M968.695,407.684c-2.119-5.018-10.191-0.763-7.34,4.104
							C964.126,416.519,970.717,412.472,968.695,407.684L968.695,407.684z"/>
					</g>
				</g>
			</g>
		</g>
		<path style="fill:#F69984;" d="M989.78,420.969c-11.967-6.46-40.309,15.408-21.541,25.798
			C987.003,457.152,1001.748,427.432,989.78,420.969z"/>
		<path style="fill:#F69984;" d="M880.887,420.58c0.395,6.594,0.969,11.548,2.99,20.65c0.389,1.74,0.904,3.448,1.479,5.137
			c4.464,2.903,10.118,3.767,16.203,0.4C919.888,436.619,893.287,415.536,880.887,420.58z"/>
		<g>
			<g>
				<g>
					<path style="fill:#BDB7B2;" d="M913.526,395.882c1.152,2.212,2.572,4.255,3.78,6.438c1.351,2.443,2.249,5.012,3.317,7.577
						c0.099,0.239,0.519,0.242,0.495-0.067c-0.405-5.182-3.989-10.382-7.542-13.986C913.549,395.818,913.51,395.851,913.526,395.882
						L913.526,395.882z"/>
				</g>
			</g>
			<g>
				<g>
					<path style="fill:#BDB7B2;" d="M923.928,421.086c0.579,6.583-1.846,12.047-2.609,18.384c-0.501,4.163,6.771,4.359,9.307,3.383
						c0.222-0.086,0.139-0.431-0.1-0.364c-1.93,0.543-8.145,0.401-8.047-3.019c0.058-2.046,0.801-4.126,1.317-6.089
						c1.096-4.172,1.255-8.098,0.442-12.337C924.204,420.871,923.912,420.91,923.928,421.086L923.928,421.086z"/>
				</g>
			</g>
		</g>
		<g>
			<path style="fill:#F0EFEE;" d="M916.157,453.182c13.417,2.004,36.627-3.389,36.627-3.389
				c1.795,18.847-22.805,28.383-26.906,18.21C921.53,457.242,916.157,453.182,916.157,453.182z"/>
		</g>
		<g>
			<g>
				<g>
					<path style="fill:#DAD6D2;" d="M933.614,478.035c2.575-1.43,5.086-1.718,7.954-1.912c0.609-0.041,0.764-0.746,0.296-1.092
						c-2.931-2.164-6.819-0.297-9.157,1.828C932.062,477.446,932.886,478.439,933.614,478.035L933.614,478.035z"/>
				</g>
			</g>
		</g>
	</g>
</g>
<path style="fill:#0F2147;" d="M877.711,295.279c0,0,24.333-41.9,48.627-69.258c6.853-7.711,25.678-9.337,34.263-3.424
	c23.493,16.191,35.594,17.573,46.467,15.377c23.311-4.717,33.168,16.38,35.818,38.61c2.326,19.463-0.147,71.344-0.147,71.344
	s-35.913-49.22-72.633-54.583C933.386,287.991,877.711,295.279,877.711,295.279z"/>
<path style="fill:#1A2E59;" d="M1004.352,279.044c-51.015-18.986-94.671-22.137-160.402-3.021
	c-58.93,17.137-41.497,60.385,0.152,96.058c0.196-3.26,0.297-5.259,0.297-5.259c5.09-34.434,38.023-44.419,65.229-44.787
	c27.208-0.365,85.322,3.821,126.965,51.44c5.542,12.686,8.767,26.119,8.767,26.119s1.8,18,8.577,33.383
	c23.442-2.988,41.491-10.374,48.523-23.031C1128.688,362.707,1055.375,298.035,1004.352,279.044z"/>
<path style="fill:#06183D;" d="M1036.593,373.476c5.542,12.686,8.767,26.119,8.767,26.119s1.8,18,8.577,33.383
	c23.442-2.988,41.491-10.374,48.523-23.031c1.727-3.11,2.996-6.297,3.897-9.544c-5.921,7.043-13.748,12.169-23.888,13.972
	c-18.493,3.29-22.358-13.324-29.197-27.593c-33.173-69.203-124.481-73.746-157.537-68.759
	c-31.637,4.772-62.817,28.399-74.599,24.959c-1.884-0.553-3.63-1.302-5.308-2.135l-0.008,0.008
	c6.722,10.505,16.543,21.165,28.281,31.225c0.196-3.26,0.297-5.259,0.297-5.259c5.09-34.434,38.023-44.419,65.229-44.787
	C936.837,321.671,994.95,325.857,1036.593,373.476z"/>
<path style="fill:#213870;" d="M811.735,333.78c7.03,6.861,16.23-9.984,19.844-14.887c7.106-9.636,14.326-18.954,25.117-24.695
	c26.12-13.896,61.177-5.902,88.893-1.874c31.839,4.63,112.658,41.499,116.21,90.692c2.941,40.753,46.469,14.313,46.129,3.955
	c-1.43-43.207-60.455-91.877-103.575-107.927c-51.015-18.986-94.671-22.137-160.402-3.021
	C786.16,292.828,810.613,331.394,811.735,333.78z"/>
</svg>
